<svg width="20" height="20" viewBox="0 0 20 20" fill="none" xmlns="http://www.w3.org/2000/svg">
<g id="add_2">
<mask id="mask0_523_3046" style="mask-type:alpha" maskUnits="userSpaceOnUse" x="0" y="0" width="20" height="20">
<rect id="Bounding box" width="20" height="20" fill="#D9D9D9"/>
</mask>
<g mask="url(#mask0_523_3046)">
<path id="add_2_2" d="M9.99987 17.0837C9.82265 17.0837 9.67425 17.0237 9.55467 16.9039C9.43494 16.7841 9.37508 16.6357 9.37508 16.4587V10.6253H3.54175C3.36466 10.6253 3.21626 10.5654 3.09654 10.4455C2.97668 10.3257 2.91675 10.1772 2.91675 10.0001C2.91675 9.8229 2.97668 9.67449 3.09654 9.55491C3.21626 9.43519 3.36466 9.37533 3.54175 9.37533H9.37508V3.54199C9.37508 3.36491 9.43501 3.21651 9.55487 3.09678C9.67474 2.97692 9.82321 2.91699 10.0003 2.91699C10.1775 2.91699 10.3259 2.97692 10.4455 3.09678C10.5652 3.21651 10.6251 3.36491 10.6251 3.54199V9.37533H16.4584C16.6355 9.37533 16.7839 9.43526 16.9036 9.55512C17.0235 9.67498 17.0834 9.82345 17.0834 10.0005C17.0834 10.1778 17.0235 10.3262 16.9036 10.4457C16.7839 10.5655 16.6355 10.6253 16.4584 10.6253H10.6251V16.4587C10.6251 16.6357 10.5652 16.7841 10.4453 16.9039C10.3254 17.0237 10.177 17.0837 9.99987 17.0837Z" fill="white"/>
</g>
</g>
</svg>
