<svg width="25" height="25" viewBox="0 0 25 25" fill="none" xmlns="http://www.w3.org/2000/svg">
<g id="arrow_back_ios_new">
<mask id="mask0_375_2009" style="mask-type:alpha" maskUnits="userSpaceOnUse" x="0" y="0" width="25" height="25">
<rect id="Bounding box" x="0.639893" y="0.5" width="24" height="24" fill="#D9D9D9"/>
</mask>
<g mask="url(#mask0_375_2009)">
<path id="arrow_back_ios_new_2" d="M9.82438 12.5003L17.3571 20.033C17.5558 20.2317 17.6526 20.4656 17.6476 20.7348C17.6425 21.0041 17.5405 21.2381 17.3419 21.4368C17.143 21.6354 16.909 21.7348 16.6399 21.7348C16.3707 21.7348 16.1367 21.6354 15.9379 21.4368L8.26688 13.781C8.08605 13.6002 7.95205 13.3976 7.86488 13.1733C7.77771 12.9489 7.73413 12.7246 7.73413 12.5003C7.73413 12.2759 7.77771 12.0516 7.86488 11.8273C7.95205 11.6029 8.08605 11.4003 8.26688 11.2195L15.9379 3.54826C16.1367 3.34959 16.3733 3.25284 16.6476 3.25801C16.922 3.26318 17.1585 3.36509 17.3571 3.56376C17.5558 3.76243 17.6551 3.99643 17.6551 4.26576C17.6551 4.53493 17.5558 4.76884 17.3571 4.96751L9.82438 12.5003Z" fill="#212124"/>
</g>
</g>
</svg>
