<svg width="24" height="25" viewBox="0 0 24 25" fill="none" xmlns="http://www.w3.org/2000/svg">
<g id="close">
<mask id="mask0_266_4386" style="mask-type:alpha" maskUnits="userSpaceOnUse" x="0" y="0" width="24" height="25">
<rect id="Bounding box" y="0.400391" width="24" height="24" fill="#D9D9D9"/>
</mask>
<g mask="url(#mask0_266_4386)">
<path id="close_2" d="M6.34425 13.4537L1.27125 18.5269C1.13275 18.6652 0.958667 18.7361 0.749 18.7394C0.5395 18.7426 0.36225 18.6717 0.21725 18.5269C0.0724167 18.3819 0 18.2062 0 17.9999C0 17.7936 0.0724167 17.6179 0.21725 17.4729L5.2905 12.3999L0.21725 7.32692C0.0789167 7.18842 0.00808339 7.01433 0.00475006 6.80466C0.00158339 6.59516 0.0724167 6.41791 0.21725 6.27291C0.36225 6.12808 0.537917 6.05566 0.74425 6.05566C0.950583 6.05566 1.12625 6.12808 1.27125 6.27291L6.34425 11.3462L11.4173 6.27291C11.5558 6.13458 11.7298 6.06375 11.9395 6.06041C12.149 6.05725 12.3263 6.12808 12.4713 6.27291C12.6161 6.41791 12.6885 6.59358 12.6885 6.79991C12.6885 7.00625 12.6161 7.18192 12.4713 7.32692L7.398 12.3999L12.4713 17.4729C12.6096 17.6114 12.6804 17.7855 12.6838 17.9952C12.6869 18.2047 12.6161 18.3819 12.4713 18.5269C12.3263 18.6717 12.1506 18.7442 11.9443 18.7442C11.7379 18.7442 11.5623 18.6717 11.4173 18.5269L6.34425 13.4537Z" fill="#1C1B1F"/>
</g>
</g>
</svg>
