<svg width="20" height="20" viewBox="0 0 20 20" fill="none" xmlns="http://www.w3.org/2000/svg">
<g id="help">
<mask id="mask0_190_2407" style="mask-type:alpha" maskUnits="userSpaceOnUse" x="0" y="0" width="20" height="20">
<rect id="Bounding box" width="20" height="20" fill="#D9D9D9"/>
</mask>
<g mask="url(#mask0_190_2407)">
<path id="help_2" d="M9.99075 14.679C10.2287 14.679 10.4296 14.597 10.5937 14.4328C10.7577 14.2685 10.8397 14.0673 10.8397 13.8293C10.8397 13.5913 10.7576 13.3904 10.5933 13.2263C10.4289 13.0625 10.2278 12.9805 9.98992 12.9805C9.752 12.9805 9.55103 13.0627 9.387 13.227C9.22297 13.3913 9.14096 13.5924 9.14096 13.8303C9.14096 14.0682 9.22311 14.2692 9.38742 14.4332C9.55172 14.5971 9.75284 14.679 9.99075 14.679ZM10.0014 17.9163C8.90638 17.9163 7.87714 17.7086 6.91367 17.293C5.9502 16.8775 5.11214 16.3135 4.3995 15.6011C3.68686 14.8888 3.12263 14.0511 2.70679 13.088C2.2911 12.125 2.08325 11.096 2.08325 10.0011C2.08325 8.90613 2.29103 7.8769 2.70659 6.91342C3.12214 5.94995 3.6861 5.1119 4.39846 4.39926C5.11082 3.68662 5.94853 3.12238 6.91159 2.70655C7.87464 2.29085 8.9036 2.08301 9.99846 2.08301C11.0935 2.08301 12.1227 2.29079 13.0862 2.70634C14.0496 3.1219 14.8877 3.68586 15.6003 4.39822C16.313 5.11058 16.8772 5.94829 17.293 6.91134C17.7087 7.8744 17.9166 8.90335 17.9166 9.99822C17.9166 11.0932 17.7088 12.1225 17.2933 13.0859C16.8777 14.0494 16.3137 14.8875 15.6014 15.6001C14.889 16.3127 14.0513 16.877 13.0883 17.2928C12.1252 17.7085 11.0962 17.9163 10.0014 17.9163ZM10.0674 6.43238C10.4519 6.43238 10.7846 6.55342 11.0655 6.79551C11.3467 7.03759 11.4872 7.34016 11.4872 7.70322C11.4872 8.00877 11.3974 8.28224 11.2178 8.52363C11.0384 8.76516 10.8333 8.99009 10.6024 9.19842C10.2999 9.46676 10.0336 9.76197 9.80346 10.084C9.57332 10.406 9.45027 10.7646 9.43429 11.1599C9.42888 11.3117 9.48228 11.4388 9.5945 11.5413C9.70672 11.6438 9.83756 11.6951 9.987 11.6951C10.1473 11.6951 10.283 11.6417 10.3941 11.5349C10.5052 11.4281 10.5762 11.2972 10.6072 11.1424C10.6628 10.856 10.7811 10.6009 10.9622 10.3772C11.1433 10.1533 11.3395 9.94044 11.5508 9.73863C11.8545 9.44252 12.1196 9.11974 12.346 8.7703C12.5725 8.42072 12.6858 8.03085 12.6858 7.60072C12.6858 6.94044 12.4256 6.39794 11.9053 5.97322C11.3851 5.54863 10.7777 5.33634 10.0833 5.33634C9.58756 5.33634 9.12013 5.44606 8.68096 5.66551C8.24193 5.88509 7.90006 6.20537 7.65534 6.62634C7.5795 6.75565 7.5552 6.89169 7.58242 7.03447C7.6095 7.17738 7.68277 7.28585 7.80221 7.35988C7.95429 7.44447 8.11047 7.46863 8.27075 7.43238C8.43103 7.39599 8.56721 7.30467 8.67929 7.15842C8.84818 6.9394 9.05256 6.76363 9.29242 6.63113C9.53228 6.49863 9.79061 6.43238 10.0674 6.43238Z" fill="#ADB1BA"/>
</g>
</g>
</svg>
