<svg width="25" height="25" viewBox="0 0 25 25" fill="none" xmlns="http://www.w3.org/2000/svg">
<g id="notifications">
<mask id="mask0_523_294" style="mask-type:alpha" maskUnits="userSpaceOnUse" x="0" y="0" width="25" height="25">
<rect id="Bounding box" x="0.359863" y="0.5" width="24" height="24" fill="#D9D9D9"/>
</mask>
<g mask="url(#mask0_523_294)">
<path id="notifications_2" d="M5.60986 19.3845C5.39736 19.3845 5.21928 19.3127 5.07561 19.169C4.93178 19.0252 4.85986 18.8469 4.85986 18.6343C4.85986 18.4218 4.93178 18.2437 5.07561 18.1C5.21928 17.9565 5.39736 17.8848 5.60986 17.8848H6.66761V10.423C6.66761 9.07817 7.0827 7.88908 7.91286 6.85575C8.74286 5.82242 9.80853 5.1615 11.1099 4.873V4.25C11.1099 3.90283 11.2313 3.60767 11.4741 3.3645C11.7169 3.1215 12.0118 3 12.3586 3C12.7056 3 13.0009 3.1215 13.2444 3.3645C13.488 3.60767 13.6099 3.90283 13.6099 4.25V4.873C14.9112 5.1615 15.9769 5.82242 16.8069 6.85575C17.637 7.88908 18.0521 9.07817 18.0521 10.423V17.8848H19.1099C19.3224 17.8848 19.5004 17.9566 19.6441 18.1003C19.7879 18.2441 19.8599 18.4223 19.8599 18.635C19.8599 18.8475 19.7879 19.0256 19.6441 19.1693C19.5004 19.3128 19.3224 19.3845 19.1099 19.3845H5.60986ZM12.3581 22.1923C11.8606 22.1923 11.4353 22.0153 11.0821 21.6613C10.7288 21.3073 10.5521 20.8817 10.5521 20.3845H14.1676C14.1676 20.8833 13.9904 21.3093 13.6361 21.6625C13.2818 22.0157 12.8558 22.1923 12.3581 22.1923Z" fill="#212124"/>
</g>
</g>
</svg>
