<svg width="26" height="25" viewBox="0 0 26 25" fill="none" xmlns="http://www.w3.org/2000/svg">
<g id="Artboard 1 copy 2 1">
<path id="Vector" d="M22.375 9.823C22.4166 8.95841 22.0937 8.14591 21.4583 7.54175C21.4271 7.5105 21.3854 7.47925 21.3125 7.41675C21.25 7.36466 21.1875 7.30216 21.1146 7.25008L14.8646 2.698C13.75 1.8855 12.25 1.8855 11.1354 2.698L4.8854 7.25008C4.81248 7.30216 4.74998 7.36466 4.64581 7.448L4.54165 7.54175C3.90623 8.15633 3.58331 8.96883 3.62498 9.78133V18.8126C3.62498 20.5001 5.03123 21.8751 6.74998 21.8751H19.25C20.9687 21.8751 22.375 20.5001 22.375 18.8126V9.83341V9.823ZM14.0416 16.6667C14.0416 17.2397 13.5729 17.7084 13 17.7084C12.4271 17.7084 11.9583 17.2397 11.9583 16.6667V13.5417C11.9583 12.9688 12.4271 12.5001 13 12.5001C13.5729 12.5001 14.0416 12.9688 14.0416 13.5417V16.6667Z" fill="#FF5C35"/>
</g>
</svg>
