<svg width="26" height="25" viewBox="0 0 26 25" fill="none" xmlns="http://www.w3.org/2000/svg">
<g id="home">
<path id="Vector" d="M19.25 21.8748H6.75004C5.03129 21.8748 3.62504 20.4998 3.62504 18.8123V9.78109C3.58337 8.96859 3.90629 8.15609 4.54171 7.5415L4.64587 7.44775C4.73962 7.36442 4.80212 7.30192 4.87504 7.24984L11.125 2.69775C12.2396 1.88525 13.7396 1.88525 14.8542 2.69775L21.1042 7.24984C21.1771 7.30192 21.25 7.36442 21.3125 7.4165C21.3855 7.479 21.4167 7.51025 21.448 7.5415C22.073 8.14567 22.4063 8.95817 22.3646 9.83317V18.8123C22.3646 20.4998 20.9688 21.8748 19.2396 21.8748H19.25ZM13 4.1665C12.7709 4.1665 12.5521 4.23942 12.3646 4.37484L6.03129 9.01025C5.73962 9.28109 5.69796 9.55192 5.70837 9.729V18.8123C5.70837 19.354 6.17712 19.7915 6.75004 19.7915H19.25C19.823 19.7915 20.2917 19.354 20.2917 18.8123V9.78109C20.2917 9.55192 20.2605 9.2915 20.0209 9.05192L19.948 8.98942L13.6355 4.37484C13.448 4.23942 13.2188 4.1665 13 4.1665Z" fill="#868B94"/>
<path id="Vector_2" d="M14.0416 13.5417C14.0416 12.9664 13.5753 12.5 13 12.5C12.4247 12.5 11.9583 12.9664 11.9583 13.5417V16.6667C11.9583 17.242 12.4247 17.7083 13 17.7083C13.5753 17.7083 14.0416 17.242 14.0416 16.6667V13.5417Z" fill="#868B94"/>
</g>
</svg>
