<svg width="26" height="25" viewBox="0 0 26 25" fill="none" xmlns="http://www.w3.org/2000/svg">
<g id="&#236;&#149;&#132;&#236;&#157;&#180;&#236;&#189;&#152;-12">
<path id="Vector" d="M6.75 16.6666V19.7916H5.70833V16.6666H6.75ZM6.75 14.5833H5.70833C4.5625 14.5833 3.625 15.5208 3.625 16.6666V19.7916C3.625 20.9374 4.5625 21.8749 5.70833 21.8749H6.75C7.89583 21.8749 8.83333 20.9374 8.83333 19.7916V16.6666C8.83333 15.5208 7.89583 14.5833 6.75 14.5833Z" fill="#868B94"/>
<path id="Vector_2" d="M13.5208 10.4166V19.7916H12.4791V10.4166H13.5208ZM13.5208 8.33325H12.4791C11.3333 8.33325 10.3958 9.27075 10.3958 10.4166V19.7916C10.3958 20.9374 11.3333 21.8749 12.4791 21.8749H13.5208C14.6666 21.8749 15.6041 20.9374 15.6041 19.7916V10.4166C15.6041 9.27075 14.6666 8.33325 13.5208 8.33325Z" fill="#868B94"/>
<path id="Vector_3" d="M20.2917 4.16659V19.7916H19.25V4.16659H20.2917ZM20.2917 2.08325H19.25C18.1042 2.08325 17.1667 3.02075 17.1667 4.16659V19.7916C17.1667 20.9374 18.1042 21.8749 19.25 21.8749H20.2917C21.4375 21.8749 22.375 20.9374 22.375 19.7916V4.16659C22.375 3.02075 21.4375 2.08325 20.2917 2.08325Z" fill="#868B94"/>
</g>
</svg>
