<svg width="26" height="25" viewBox="0 0 26 25" fill="none" xmlns="http://www.w3.org/2000/svg">
<g id="My">
<path id="Vector" d="M13 5.20833C14.4375 5.20833 15.6042 6.375 15.6042 7.8125C15.6042 9.25 14.4375 10.4167 13 10.4167C11.5625 10.4167 10.3958 9.25 10.3958 7.8125C10.3958 6.375 11.5625 5.20833 13 5.20833ZM13 3.125C10.4062 3.125 8.3125 5.21875 8.3125 7.8125C8.3125 10.4062 10.4062 12.5 13 12.5C15.5937 12.5 17.6875 10.4062 17.6875 7.8125C17.6875 5.21875 15.5937 3.125 13 3.125Z" fill="#868B94"/>
<path id="Vector_2" d="M16.125 15.6251C18.4271 15.6251 20.2917 17.4897 20.2917 19.7917V20.8334H5.70833V19.7917C5.70833 17.4897 7.57292 15.6251 9.875 15.6251H16.125ZM16.125 13.5417H9.875C6.42708 13.5417 3.625 16.3438 3.625 19.7917V20.8334C3.625 21.9792 4.5625 22.9167 5.70833 22.9167H20.2917C21.4375 22.9167 22.375 21.9792 22.375 20.8334V19.7917C22.375 16.3438 19.5729 13.5417 16.125 13.5417Z" fill="#868B94"/>
</g>
</svg>
