<svg width="26" height="25" viewBox="0 0 26 25" fill="none" xmlns="http://www.w3.org/2000/svg">
<g id="info">
<path id="Vector" d="M6.75001 21.3542C5.31251 21.3542 4.14584 20.2397 4.14584 18.8647V5.09383C4.14584 3.71883 5.31251 2.60425 6.75001 2.60425H14.2188C14.9063 2.60425 15.5625 2.86466 16.0521 3.323L21.0833 8.073C21.5729 8.54175 21.8542 9.17716 21.8542 9.84383V18.8647C21.8542 20.2397 20.6875 21.3542 19.25 21.3542H6.75001ZM8.83334 13.0209C7.96876 13.0209 7.27084 13.7188 7.27084 14.5834C7.27084 15.448 7.96876 16.1459 8.83334 16.1459H16.125C16.9896 16.1459 17.6875 15.448 17.6875 14.5834C17.6875 13.7188 16.9896 13.0209 16.125 13.0209H8.83334ZM8.83334 7.81258C7.96876 7.81258 7.27084 8.5105 7.27084 9.37508C7.27084 10.2397 7.96876 10.9376 8.83334 10.9376H13.3125C14.1771 10.9376 14.875 10.2397 14.875 9.37508C14.875 8.5105 14.1771 7.81258 13.3125 7.81258H8.83334Z" fill="#FF5C35"/>
<path id="Vector_2" d="M14.2188 3.12492C14.7708 3.12492 15.3021 3.33325 15.6875 3.69784L20.7188 8.44783C21.1042 8.81242 21.3333 9.32283 21.3333 9.83325V18.8541C21.3333 19.9374 20.3958 20.8228 19.25 20.8228H6.75C5.60417 20.8228 4.66667 19.9374 4.66667 18.8541V5.09367C4.66667 4.01034 5.60417 3.12492 6.75 3.12492H14.2188ZM8.83333 11.4583H13.3125C14.4583 11.4583 15.3958 10.5208 15.3958 9.37492C15.3958 8.22908 14.4583 7.29158 13.3125 7.29158H8.83333C7.6875 7.29158 6.75 8.22908 6.75 9.37492C6.75 10.5208 7.6875 11.4583 8.83333 11.4583ZM8.83333 16.6666H16.125C17.2708 16.6666 18.2083 15.7291 18.2083 14.5833C18.2083 13.4374 17.2708 12.4999 16.125 12.4999H8.83333C7.6875 12.4999 6.75 13.4374 6.75 14.5833C6.75 15.7291 7.6875 16.6666 8.83333 16.6666ZM14.2188 2.08325H6.75C5.03125 2.08325 3.625 3.43742 3.625 5.09367V18.8645C3.625 20.5208 5.03125 21.8749 6.75 21.8749H19.25C20.9688 21.8749 22.375 20.5208 22.375 18.8645V9.84367C22.375 9.04158 22.0312 8.26033 21.4375 7.69783L16.4062 2.94784C15.8229 2.39575 15.0417 2.08325 14.2188 2.08325ZM8.83333 10.4166C8.26042 10.4166 7.79167 9.94783 7.79167 9.37492C7.79167 8.802 8.26042 8.33325 8.83333 8.33325H13.3125C13.8854 8.33325 14.3542 8.802 14.3542 9.37492C14.3542 9.94783 13.8854 10.4166 13.3125 10.4166H8.83333ZM8.83333 15.6249C8.26042 15.6249 7.79167 15.1562 7.79167 14.5833C7.79167 14.0103 8.26042 13.5416 8.83333 13.5416H16.125C16.6979 13.5416 17.1667 14.0103 17.1667 14.5833C17.1667 15.1562 16.6979 15.6249 16.125 15.6249H8.83333Z" fill="#FF5C35"/>
</g>
</svg>
