<svg width="26" height="25" viewBox="0 0 26 25" fill="none" xmlns="http://www.w3.org/2000/svg">
<g id="info">
<path id="Vector" d="M19.25 21.8749H6.75C5.03125 21.8749 3.625 20.5208 3.625 18.8645V5.09367C3.625 3.43742 5.03125 2.08325 6.75 2.08325H14.2188C15.0417 2.08325 15.8229 2.38534 16.4062 2.94784L21.4375 7.69783C22.0312 8.26033 22.375 9.04158 22.375 9.84367V18.8645C22.375 20.5208 20.9688 21.8749 19.25 21.8749ZM6.75 4.16659C6.17708 4.16659 5.70833 4.58325 5.70833 5.09367V18.8645C5.70833 19.3749 6.17708 19.7916 6.75 19.7916H19.25C19.8229 19.7916 20.2917 19.3749 20.2917 18.8645V9.84367C20.2917 9.60408 20.1875 9.38533 20.0104 9.20825L14.9792 4.45825C14.7812 4.27075 14.5104 4.16659 14.2188 4.16659H6.75Z" fill="#868B94"/>
<path id="Vector_2" d="M13.3125 8.33325H8.83332C8.26041 8.33325 7.79166 8.802 7.79166 9.37492C7.79166 9.94784 8.26041 10.4166 8.83332 10.4166H13.3125C13.8854 10.4166 14.3542 9.94784 14.3542 9.37492C14.3542 8.802 13.8854 8.33325 13.3125 8.33325Z" fill="#868B94"/>
<path id="Vector_3" d="M16.125 13.5417H8.83332C8.26041 13.5417 7.79166 14.0105 7.79166 14.5834C7.79166 15.1563 8.26041 15.6251 8.83332 15.6251H16.125C16.6979 15.6251 17.1667 15.1563 17.1667 14.5834C17.1667 14.0105 16.6979 13.5417 16.125 13.5417Z" fill="#868B94"/>
</g>
</svg>
