<svg width="26" height="25" viewBox="0 0 26 25" fill="none" xmlns="http://www.w3.org/2000/svg">
<g id="Calendar">
<path id="Vector" d="M19.25 21.8751H6.75C5.03125 21.8751 3.625 20.4688 3.625 18.7501V7.29175C3.625 5.573 5.03125 4.16675 6.75 4.16675H19.25C20.9688 4.16675 22.375 5.573 22.375 7.29175V18.7501C22.375 20.4688 20.9688 21.8751 19.25 21.8751ZM6.75 6.25008C6.17708 6.25008 5.70833 6.71883 5.70833 7.29175V18.7501C5.70833 19.323 6.17708 19.7917 6.75 19.7917H19.25C19.8229 19.7917 20.2917 19.323 20.2917 18.7501V7.29175C20.2917 6.71883 19.8229 6.25008 19.25 6.25008H6.75Z" fill="#868B94"/>
<path id="Vector_2" d="M8.83332 2.08325C8.26041 2.08325 7.79166 2.552 7.79166 3.12492V6.24992C7.79166 6.82283 8.26041 7.29158 8.83332 7.29158C9.40624 7.29158 9.87499 6.82283 9.87499 6.24992V3.12492C9.87499 2.552 9.40624 2.08325 8.83332 2.08325Z" fill="#868B94"/>
<path id="Vector_3" d="M17.1667 2.08325C16.5938 2.08325 16.125 2.552 16.125 3.12492V6.24992C16.125 6.82283 16.5938 7.29158 17.1667 7.29158C17.7396 7.29158 18.2083 6.82283 18.2083 6.24992V3.12492C18.2083 2.552 17.7396 2.08325 17.1667 2.08325Z" fill="#868B94"/>
<path id="Vector_4" d="M21.3333 9.375H4.66667C4.09375 9.375 3.625 9.84375 3.625 10.4167C3.625 10.9896 4.09375 11.4583 4.66667 11.4583H21.3333C21.9062 11.4583 22.375 10.9896 22.375 10.4167C22.375 9.84375 21.9062 9.375 21.3333 9.375Z" fill="#868B94"/>
<path id="Vector_5" d="M8.83332 13.5417C8.26041 13.5417 7.79166 14.0105 7.79166 14.5834C7.79166 15.1563 8.26041 15.6251 8.83332 15.6251C9.40624 15.6251 9.87499 15.1563 9.87499 14.5834C9.87499 14.0105 9.40624 13.5417 8.83332 13.5417Z" fill="#868B94"/>
<path id="Vector_6" d="M13 13.5417C12.4271 13.5417 11.9583 14.0105 11.9583 14.5834C11.9583 15.1563 12.4271 15.6251 13 15.6251C13.5729 15.6251 14.0417 15.1563 14.0417 14.5834C14.0417 14.0105 13.5729 13.5417 13 13.5417Z" fill="#868B94"/>
</g>
</svg>
