<svg width="26" height="25" viewBox="0 0 26 25" fill="none" xmlns="http://www.w3.org/2000/svg">
<g id="Artboard 1 copy 6 1">
<path id="Vector" d="M21.3333 11.4583H4.66667C4.09375 11.4583 3.625 11.927 3.625 12.4999V18.7499C3.625 20.4791 5.02083 21.8749 6.75 21.8749H19.25C20.9792 21.8749 22.375 20.4791 22.375 18.7499V12.4999C22.375 11.927 21.9062 11.4583 21.3333 11.4583ZM8.83333 15.6249C8.26042 15.6249 7.79167 15.1562 7.79167 14.5833C7.79167 14.0103 8.26042 13.5416 8.83333 13.5416C9.40625 13.5416 9.875 14.0103 9.875 14.5833C9.875 15.1562 9.40625 15.6249 8.83333 15.6249ZM13 15.6249C12.4271 15.6249 11.9583 15.1562 11.9583 14.5833C11.9583 14.0103 12.4271 13.5416 13 13.5416C13.5729 13.5416 14.0417 14.0103 14.0417 14.5833C14.0417 15.1562 13.5729 15.6249 13 15.6249ZM22.375 7.29158V8.33325C22.375 8.90617 21.9062 9.37492 21.3333 9.37492H4.66667C4.09375 9.37492 3.625 8.90617 3.625 8.33325V7.29158C3.625 5.56242 5.02083 4.16659 6.75 4.16659H7.79167V3.12492C7.79167 2.552 8.26042 2.08325 8.83333 2.08325C9.40625 2.08325 9.875 2.552 9.875 3.12492V4.16659H16.125V3.12492C16.125 2.552 16.5937 2.08325 17.1667 2.08325C17.7396 2.08325 18.2083 2.552 18.2083 3.12492V4.16659H19.25C20.9792 4.16659 22.375 5.56242 22.375 7.29158Z" fill="#FF5C35"/>
</g>
</svg>
